<svg xmlns="http://www.w3.org/2000/svg" xmlns:xlink="http://www.w3.org/1999/xlink" version="1.1" id="Layer_1" x="0px" y="0px" viewBox="0 0 269.9 82" style="enable-background:new 0 0 269.9 82;" xml:space="preserve">
<style type="text/css">
	.st0{fill:#F39651;}
  .st1{fill:#FFFFFF;}
</style>
  <g>
	<polygon class="st0" points="141.3,1 137.1,15.2 142.7,15.2 145.3,6.3 184.7,6.3 164,76.3 124.6,76.3 126.9,68.8 121.3,68.8    117.5,81.6 168,81.6 191.8,1  "/>
    <path class="st0" d="M122.3,46.4l3-10.2c-0.5-0.1-1-0.2-1.5-0.2c-3,0-5.3,2.4-5.3,5.3C118.5,43.7,120.1,45.8,122.3,46.4z"/>
</g>
  <g>
	<path class="st1" d="M11.6,23.3L1,59.4h5.6l2-6.9h12.6l2,6.9h5.6L18.1,23.3H11.6z M10.2,47l4.7-16.2L19.5,47H10.2z"/>
    <path class="st1" d="M104.2,40.6c2.5,0,5.6-2.8,5.6-7.8c0-8.8-5.9-9.5-12.9-9.5h-6.5v36.1h8.6c7.1,0,12.9-1.4,12.9-9.7   C111.9,44.4,109,40.6,104.2,40.6z M96,28.8h0.8c5.5,0,7.3,1.2,7.3,4.9c0,3.8-3.1,4.2-7.3,4.2H96V28.8z M98.9,53.8H96V43.4h1.5   c6.2,0,8.7,1.3,8.7,5.3C106.2,52.1,104.4,53.8,98.9,53.8z"/>
    <path class="st1" d="M217.3,39.5c-6.7-4-10.1-5.3-10.1-7.8c0-1.9,1.6-3.1,4.7-3.1c4.6,0,5.7,2.8,5.7,6.5l5.7-1v-1   c0-7.5-5.8-10-11-10c-5.2,0-10.8,2.3-10.8,8.7c0,4.8,1.9,6.9,8.6,11c5.6,3.2,8.5,4.3,8.5,7.5c0,2.1-1.8,3.8-5.8,3.8   c-5.3,0-6.7-2.5-6.7-6.2v-1.3l-5.7,1v2c0,7.8,7,10,12.2,10s11.6-1.9,11.6-9.4C224.3,45.1,222.2,42.7,217.3,39.5z"/>
    <path class="st1" d="M254.4,23.3H248l-10.7,36.1h5.6l2-6.9h12.6l2,6.9h5.6L254.4,23.3z M246.5,47l4.7-16.2l4.7,16.2H246.5z"/>
    <path class="st1" d="M180.4,39.5c-6.7-4-10.1-5.3-10.1-7.8c0-1.9,1.6-3.1,4.7-3.1c4.6,0,5.7,2.8,5.7,6.5l5.7-1v-1   c0-7.5-5.8-10-11-10s-10.8,2.3-10.8,8.7c0,4.8,1.9,6.9,8.6,11c5.6,3.2,8.5,4.3,8.5,7.5c0,2.1-1.8,3.8-5.8,3.8   c-5.3,0-6.7-2.5-6.7-6.2v-1.3l-5.7,1v2c0,7.8,7,10,12.2,10c5.2,0,11.6-1.9,11.6-9.4C187.4,45.1,185.3,42.7,180.4,39.5z"/>
    <path class="st1" d="M134.8,23.3l-10.7,36.1h5.6l2-6.9h12.6l2,6.9h5.6l-10.7-36.1H134.8z M133.3,47l4.7-16.2l4.7,16.2H133.3z"/>
    <polygon class="st1" points="57.8,41.4 47.7,23.2 42.1,23.2 42.1,59.3 47.7,59.3 47.7,35.5 57.8,52.8 68,35.5 68,59.3 73.6,59.3    73.6,23.2 68,23.2  "/>
    <polygon class="st1" points="240.4,77.3 242.7,77.3 242.7,75.1 240.4,75.1 240.4,73 243.7,73 243.7,70.8 238,70.8 238,81.5    243.8,81.5 243.8,79.3 240.4,79.3  "/>
    <path class="st1" d="M253.9,78c0,1-0.7,1.3-1.4,1.3c-0.6,0-1.4-0.3-1.4-1.3v-7.3h-2.4v7.4c0,2.8,2,3.5,3.8,3.5   c1.8,0,3.7-0.7,3.7-3.5v-7.4h-2.4V78z"/>
    <path class="st1" d="M266.6,77.8c0.9-0.5,1.5-1.4,1.5-2.9v-0.6c0-2.6-1.8-3.5-3.7-3.5h-3v10.8h2.4v-3.2h0.7h0l1.4,3.2h2.7   L266.6,77.8z M265.7,74.7c0,0.9-0.5,1.3-1.4,1.3h-0.7v-3h0.7c0.9,0,1.4,0.4,1.4,1.3V74.7z"/>
    <path class="st1" d="M229.3,70.8h-3.4v10.8h3.4c1.8,0,3.7-0.7,3.7-3.5v-3.8C233,71.5,231,70.8,229.3,70.8z M230.6,78   c0,1-0.7,1.3-1.4,1.3h-1.1V73h1.1c0.6,0,1.4,0.3,1.4,1.3V78z"/>
</g>
</svg>
